<svg version="1.0" xmlns="http://www.w3.org/2000/svg" viewBox="0 0 512 512" fill="currentColor"><path d="M239.3 33.5c-31.4 5.7-59.1 27.6-71.4 56.6-6.7 15.7-7.2 19.3-7.7 54.1l-.4 31.8h-41.4c-32.8 0-42.1.3-44.7 1.4-4.2 1.7-8.5 6.8-9.2 11-.8 4.2 26.9 238.3 29.1 245.7 4.8 16.3 17.4 31.4 32.4 38.8 15 7.4 9.8 7.1 130 7.1s115 .3 130-7.1c15-7.4 27.6-22.5 32.4-38.8 2.2-7.4 29.9-241.5 29.1-245.7-.7-4.2-5-9.3-9.2-11-2.6-1.1-11.9-1.4-44.7-1.4h-41.4l-.4-31.8c-.5-34.8-1-38.4-7.7-54.1-9.8-23-31.5-43.6-54.8-52.1-15.9-5.7-34.2-7.4-50-4.5zm30.2 32c23.8 5 43.9 25.1 49 49.1 1.1 5.1 1.5 14.1 1.5 34.1V176H192v-27.3c0-31.5.8-37 7-49.3 13.2-26.1 41.8-39.9 70.5-33.9zm-87.2 143.9c10.3 4.3 12.8 17.7 4.8 25.7-6.5 6.5-15.7 6.5-22.2 0-12.4-12.3 1.3-32.5 17.4-25.7zm160 0c10.3 4.3 12.8 17.7 4.8 25.7-11.2 11.3-29.6 1.2-26.7-14.6 1.8-9.4 12.8-15 21.9-11.1zM327.8 275c4.7 2.9 7.2 7.6 7.2 13.6s2.4 1.9-35 60.3c-30.6 47.6-32 49.4-40.7 50.7-9.3 1.4-10.5.5-37.9-26.9-13.9-13.9-26.1-26.8-27.3-28.7-7.1-11.9 5.1-27.4 18.3-23 1.9.6 11.4 6.9 21.2 14 9.8 7 18.2 12.6 18.5 12.4.4-.2 13.4-16.4 28.9-35.9 15.5-19.5 29.3-36.2 30.8-37 4-2.1 12.1-1.9 16 .5z"/></svg>